<svg width="60" height="61" viewBox="0 0 60 61" fill="none" xmlns="http://www.w3.org/2000/svg">
<g id="icon-3.svg" clip-path="url(#clip0_1_6559)">
<g id="Clip path group">
<mask id="mask0_1_6559" style="mask-type:luminance" maskUnits="userSpaceOnUse" x="0" y="0" width="60" height="60">
<g id="clip0">
<path id="Vector" d="M59.6292 0.47998H0.324219V59.785H59.6292V0.47998Z" fill="white"/>
</g>
</mask>
<g mask="url(#mask0_1_6559)">
<g id="Group">
<path id="Vector_2" d="M40.2855 57.9084C48.8065 57.9084 55.7141 51.0008 55.7141 42.4798C55.7141 33.9589 48.8065 27.0513 40.2855 27.0513C31.7645 27.0513 24.8569 33.9589 24.8569 42.4798C24.8569 51.0008 31.7645 57.9084 40.2855 57.9084Z" fill="#FDC040"/>
<path id="Vector_3" d="M43.4066 26.1526V14.9294C43.4066 14.6081 43.2583 14.3113 43.0483 14.0764L30.4654 0.863215C30.2305 0.616171 29.8966 0.47998 29.5632 0.47998H9.61325C5.93018 0.47998 2.98828 3.48342 2.98828 7.16691V44.8909C2.98828 48.5744 5.93018 51.5285 9.61325 51.5285H25.3607C28.3392 56.4726 33.7534 59.785 39.9209 59.785C49.2901 59.785 56.9412 52.171 56.9412 42.7897C56.9539 34.5947 51.07 27.7472 43.4066 26.1526ZM30.7993 4.81863L39.2413 13.7054H33.7657C32.1341 13.7054 30.7993 12.3584 30.7993 10.7269V4.81863ZM9.61325 49.0562C7.30205 49.0562 5.46053 47.2021 5.46053 44.8909V7.16691C5.46053 4.84307 7.30205 2.95223 9.61325 2.95223H28.327V10.7269C28.327 13.7303 30.7621 16.1777 33.7657 16.1777H40.9345V25.8309C40.5638 25.8188 40.267 25.7816 39.9458 25.7816C35.632 25.7816 31.6644 27.4381 28.6732 30.0338H12.9755C12.2954 30.0338 11.7393 30.59 11.7393 31.2695C11.7393 31.9496 12.2954 32.5057 12.9755 32.5057H26.3742C25.4964 33.7418 24.767 34.9779 24.1987 36.3375H12.9755C12.2954 36.3375 11.7393 36.8936 11.7393 37.5737C11.7393 38.2532 12.2954 38.8098 12.9755 38.8098H23.3952C23.0862 40.046 22.9255 41.4178 22.9255 42.7897C22.9255 45.0144 23.3581 47.2148 24.1368 49.0689H9.61325V49.0562ZM39.9336 57.3254C31.9241 57.3254 25.41 50.8113 25.41 42.8018C25.41 34.7924 31.9114 28.2783 39.9336 28.2783C47.9552 28.2783 54.4567 34.7924 54.4567 42.8018C54.4567 50.8113 47.9431 57.3254 39.9336 57.3254Z" fill="#3BB77E"/>
<path id="Vector_4" d="M12.9753 26.3131H25.4963C26.1764 26.3131 26.7325 25.7565 26.7325 25.077C26.7325 24.3969 26.1764 23.8408 25.4963 23.8408H12.9753C12.2953 23.8408 11.7393 24.3969 11.7393 25.077C11.7393 25.7565 12.2953 26.3131 12.9753 26.3131Z" fill="#3BB77E"/>
<path id="Vector_5" d="M39.5255 35.1755C39.6246 35.2 39.7233 35.2126 39.8224 35.2126C39.9459 35.2126 40.0572 35.2 40.1685 35.1628C41.8001 35.299 43.0733 36.6587 43.0733 38.3152C43.0733 38.9948 43.6294 39.5508 44.309 39.5508C44.9891 39.5508 45.5451 38.9948 45.5451 38.3152C45.5451 35.5959 43.6172 33.3214 41.0585 32.7898V31.9988C41.0585 31.3187 40.502 30.7627 39.8224 30.7627C39.1423 30.7627 38.5862 31.3187 38.5862 31.9988V32.8395C36.114 33.4327 34.2725 35.6701 34.2725 38.3152C34.2725 41.4299 36.8063 43.9515 39.9088 43.9515C41.6517 43.9515 43.0733 45.3727 43.0733 47.1155C43.0733 48.8584 41.6639 50.2923 39.9088 50.2923C38.1659 50.2923 36.7447 48.8706 36.7447 47.1278C36.7447 46.4482 36.1882 45.8916 35.5086 45.8916C34.8286 45.8916 34.2725 46.4482 34.2725 47.1278C34.2725 49.7855 36.114 52.0102 38.5862 52.6035V53.8767C38.5862 54.5567 39.1423 55.1128 39.8224 55.1128C40.502 55.1128 41.0585 54.5567 41.0585 53.8767V52.6406C43.6172 52.1089 45.5451 49.8348 45.5451 47.1155C45.5451 44.0008 43.0113 41.4792 39.9088 41.4792C38.1659 41.4792 36.7447 40.0576 36.7447 38.3152C36.7447 36.708 37.9559 35.3611 39.5255 35.1755Z" fill="#3BB77E"/>
</g>
</g>
</g>
</g>
<defs>
<clipPath id="clip0_1_6559">
<rect width="60" height="60" fill="white" transform="translate(0 0.47998)"/>
</clipPath>
</defs>
</svg>
