<svg width="60" height="61" viewBox="0 0 60 61" fill="none" xmlns="http://www.w3.org/2000/svg">
<g id="icon-1.svg">
<g id="Clip path group">
<mask id="mask0_1_6519" style="mask-type:luminance" maskUnits="userSpaceOnUse" x="0" y="0" width="60" height="60">
<g id="clip0">
<path id="Vector" d="M59.305 0.47998H0V59.785H59.305V0.47998Z" fill="white"/>
</g>
</mask>
<g mask="url(#mask0_1_6519)">
<g id="Group">
<path id="Vector_2" d="M37.7141 4.76562H29.1426L18.8569 15.0513L23.9998 18.0513L29.1426 12.9085L39.8569 23.6228L43.7141 28.3371L49.2855 29.1942L51.8569 24.4799V8.1942L47.5712 4.76562H37.7141Z" fill="#FDC040"/>
<path id="Vector_3" d="M55.3668 12.8128H53.048L53.0502 8.6673C53.0516 5.88421 50.7888 3.61874 48.0052 3.61737L30.4063 3.60742H30.4041C29.4023 3.60742 28.4603 3.99745 27.7517 4.706L1.47819 30.9795C0.524855 31.9329 0 33.2002 0 34.5485C0 35.8969 0.524855 37.1642 1.47819 38.1176L18.5288 55.1681C19.5129 56.1522 20.8055 56.6441 22.0977 56.6441C23.3905 56.6441 24.6831 56.1522 25.6672 55.1681L42.2092 38.6261C42.6617 38.1737 42.6617 37.4402 42.2092 36.9882C41.7567 36.5357 41.0233 36.5357 40.5709 36.9882L24.0289 53.5302C22.9642 54.5949 21.2318 54.5949 20.1671 53.5302L3.11655 36.4797C2.60075 35.9639 2.3166 35.2779 2.3166 34.5485C2.3166 33.8192 2.60075 33.1332 3.11655 32.6174L29.3896 6.34436C29.6607 6.07334 30.0208 5.92402 30.4041 5.92402H30.405L48.0039 5.93398C49.5097 5.93443 50.7345 7.1606 50.7336 8.66639L50.7282 18.3726H45.5109C45.0615 18.3726 44.6547 18.1889 44.3607 17.893C44.8453 17.6853 45.2996 17.3853 45.6945 16.9903C47.3591 15.3252 47.3591 12.6168 45.6945 10.9523C44.0295 9.28718 41.3211 9.28718 39.656 10.9523C37.9914 12.6168 37.9914 15.3252 39.656 16.9903C40.2731 17.6075 41.0342 17.9952 41.8319 18.155C42.3988 19.6349 43.8336 20.6892 45.5109 20.6892H50.7268L50.7237 26.2418C50.7237 26.625 50.5743 26.9848 50.3033 27.2553L47.1234 30.4356C46.6709 30.8881 46.6709 31.6216 47.1234 32.0741C47.5755 32.526 48.3088 32.526 48.7613 32.0741L51.9417 28.8937C52.6493 28.1855 53.0398 27.2445 53.0403 26.2432L53.0434 20.6892H55.3668C57.5382 20.6892 59.305 18.9228 59.305 16.751C59.305 14.5796 57.5382 12.8128 55.3668 12.8128ZM41.2943 12.5902C41.6753 12.2092 42.1753 12.0191 42.6757 12.0191C43.1757 12.0191 43.6756 12.2096 44.0566 12.5902C44.177 12.7109 44.2765 12.8444 44.3589 12.9851C43.0875 13.3747 42.0885 14.3923 41.7233 15.6746C41.5699 15.5891 41.4247 15.4827 41.2943 15.3524C40.5328 14.5905 40.5328 13.3517 41.2943 12.5902ZM55.3668 18.3726H53.0448L53.0466 15.1294H55.3668C56.2609 15.1294 56.9884 15.8569 56.9884 16.751C56.9884 17.645 56.2609 18.3726 55.3668 18.3726Z" fill="#3BB77E"/>
<path id="Vector_4" d="M18.6965 32.8319C18.839 33.3444 19.3046 33.6797 19.8114 33.6797C19.9146 33.6797 20.019 33.6662 20.1227 33.6372L32.0134 30.3275C32.6296 30.1559 32.9902 29.5171 32.8188 28.9008C32.6472 28.2851 32.0088 27.9245 31.3921 28.0959L19.5014 31.4052C18.8856 31.5772 18.525 32.2156 18.6965 32.8319Z" fill="#3BB77E"/>
<path id="Vector_5" d="M23.9305 34.3605C23.2853 35.0058 22.9302 35.8632 22.9302 36.7758C22.9302 37.6879 23.2853 38.5453 23.9305 39.1906C24.5965 39.8562 25.4707 40.1892 26.3453 40.1892C27.2199 40.1892 28.0945 39.8562 28.7605 39.1906C30.0921 37.8589 30.0921 35.6921 28.7605 34.3605C27.429 33.0289 25.2621 33.0289 23.9305 34.3605ZM27.1222 37.5522C26.6937 37.9806 25.9969 37.9806 25.5685 37.5522C25.3608 37.345 25.2468 37.069 25.2468 36.7753C25.2468 36.4821 25.3612 36.2061 25.5685 35.9984C25.7829 35.7844 26.0643 35.6772 26.3453 35.6772C26.6268 35.6772 26.9082 35.7844 27.1222 35.9984C27.5507 36.4269 27.5507 37.1242 27.1222 37.5522Z" fill="#3BB77E"/>
<path id="Vector_6" d="M29.3345 27.4642C30.6661 26.1322 30.6661 23.9657 29.3345 22.6342C28.6894 21.989 27.8315 21.6338 26.9193 21.6338C26.0071 21.6338 25.1493 21.989 24.5045 22.6342C23.173 23.9657 23.173 26.1322 24.5045 27.4642C25.1705 28.1297 26.0447 28.4627 26.9193 28.4627C27.7939 28.4627 28.6685 28.1297 29.3345 27.4642ZM26.1425 24.2721C26.3501 24.0644 26.6261 23.9504 26.9193 23.9504C27.2129 23.9504 27.4889 24.0644 27.6962 24.2721C28.1247 24.7006 28.1247 25.3973 27.6962 25.8258C27.2681 26.2543 26.5709 26.2543 26.1425 25.8258C25.7144 25.3973 25.7144 24.7006 26.1425 24.2721Z" fill="#3BB77E"/>
<path id="Vector_7" d="M11.5204 30.4385C11.068 29.986 10.3345 29.986 9.88201 30.4385L6.59081 33.7297C6.37363 33.9469 6.25146 34.2414 6.25146 34.5486C6.25146 34.8559 6.37363 35.1504 6.59081 35.3676L21.2791 50.0558C21.5049 50.2816 21.8017 50.3947 22.098 50.3947C22.3944 50.3947 22.6907 50.2816 22.917 50.0558L44.8776 28.0947C45.3301 27.6422 45.3301 26.9088 44.8776 26.4564L30.1899 11.7685C29.9727 11.5513 29.6781 11.4292 29.3709 11.4292C29.0637 11.4292 28.7691 11.5513 28.552 11.7685L16.4345 23.8859C15.9821 24.3384 15.9821 25.0718 16.4345 25.5242C16.8866 25.9763 17.62 25.9763 18.0724 25.5242L29.3709 14.2259L42.4208 27.2757L22.098 47.5985L9.0481 34.5486L11.5204 32.0764C11.9724 31.6239 11.9728 30.8909 11.5204 30.4385Z" fill="#3BB77E"/>
<path id="Vector_8" d="M44.6666 33.3726C44.3617 33.3726 44.063 33.4965 43.8476 33.7119C43.6323 33.9273 43.5083 34.2264 43.5083 34.5308C43.5083 34.8354 43.6323 35.1344 43.8476 35.3498C44.063 35.5652 44.3617 35.6892 44.6666 35.6892C44.9711 35.6892 45.2697 35.5652 45.4856 35.3498C45.701 35.1344 45.8249 34.8354 45.8249 34.5308C45.8249 34.2264 45.701 33.9273 45.4856 33.7119C45.2697 33.4965 44.9711 33.3726 44.6666 33.3726Z" fill="#3BB77E"/>
<path id="Vector_9" d="M14.7956 28.7995C15.0124 28.5842 15.1354 28.2864 15.1354 27.9806C15.1354 27.6761 15.0124 27.3784 14.7956 27.1616C14.5803 26.9463 14.2825 26.8223 13.9771 26.8223C13.6721 26.8223 13.3735 26.9463 13.1582 27.1616C12.9424 27.377 12.8188 27.6761 12.8188 27.9806C12.8188 28.2864 12.9424 28.5842 13.1582 28.7995C13.3744 29.0163 13.6721 29.1389 13.9771 29.1389C14.2825 29.1389 14.5803 29.0163 14.7956 28.7995Z" fill="#3BB77E"/>
</g>
</g>
</g>
</g>
</svg>
