<svg width="60" height="61" viewBox="0 0 60 61" fill="none" xmlns="http://www.w3.org/2000/svg">
<g id="icon-4.svg" clip-path="url(#clip0_1_6575)">
<g id="Clip path group">
<mask id="mask0_1_6575" style="mask-type:luminance" maskUnits="userSpaceOnUse" x="0" y="0" width="60" height="60">
<g id="clip0">
<path id="Vector" d="M59.7914 0.47998H0.486328V59.785H59.7914V0.47998Z" fill="white"/>
</g>
</mask>
<g mask="url(#mask0_1_6575)">
<g id="Group">
<path id="Vector_2" d="M44.0168 56.4259C43.4162 56.4259 42.9224 56.8829 42.8641 57.4681H34.1476L32.7725 49.1875L34.3009 47.6592C34.5181 47.442 34.6402 47.1473 34.6402 46.8402C34.6402 46.533 34.5181 46.2384 34.3009 46.0211L32.9485 44.6687H35.2595C37.7957 44.6687 40.1557 45.9275 41.5722 48.036C41.929 48.567 42.6487 48.7082 43.1795 48.3516C43.7105 47.9948 43.8518 47.2752 43.4951 46.7441C41.662 44.0156 38.6169 42.3789 35.3374 42.3532C36.4595 41.1106 37.1439 39.4656 37.1439 37.6635V35.9646C37.1439 32.1019 34.0014 28.9595 30.1387 28.9595C26.276 28.9595 23.1335 32.1019 23.1335 35.9646V37.6635C23.1335 39.4661 23.8182 41.1113 24.9406 42.354C19.5089 42.396 15.1025 46.8261 15.1025 52.2676V58.6264C15.1025 59.2661 15.6211 59.7847 16.2609 59.7847H44.0165C44.6563 59.7847 45.1749 59.2661 45.1749 58.6264V57.5842C45.1751 56.9446 44.6565 56.4259 44.0168 56.4259ZM30.1523 48.5317L28.4606 46.8402L30.1523 45.1486L31.844 46.8402L30.1523 48.5317ZM29.5527 51.1596C29.7365 51.271 29.9441 51.3281 30.1522 51.3281C30.3602 51.3281 30.5679 51.2711 30.7516 51.1596L31.7993 57.4681H28.505L29.5527 51.1596ZM25.4504 35.9646C25.4504 33.3794 27.5536 31.2761 30.139 31.2761C32.7243 31.2761 34.8275 33.3792 34.8275 35.9646V37.6635C34.8275 40.2487 32.7243 42.3521 30.139 42.3521C27.5536 42.3521 25.4504 40.2488 25.4504 37.6635V35.9646ZM17.4194 52.2676C17.4194 48.0774 20.8283 44.6687 25.0183 44.6687H27.3557L26.0033 46.0211C25.7861 46.2384 25.6641 46.533 25.6641 46.8402C25.6641 47.1473 25.7861 47.442 26.0033 47.6592L27.5318 49.1875L26.1567 57.4681H17.4193L17.4194 52.2676Z" fill="#3BB77E"/>
<path id="Vector_3" d="M24 1.76562C24.3429 1.76562 32.1429 2.05134 36 2.1942V14.6228L24 14.1942V1.76562Z" fill="#FDC040"/>
<path id="Vector_4" d="M51.4282 2.19434L45.4282 13.3372H58.2854L52.2854 2.62291L51.4282 2.19434Z" fill="#FDC040"/>
<path id="Vector_5" d="M24 1.76562C24.3429 1.76562 32.1429 2.05134 36 2.1942V14.6228L24 14.1942V1.76562Z" stroke="black" stroke-width="0.857143" stroke-linecap="round" stroke-linejoin="round"/>
<path id="Vector_6" d="M51.4282 2.19434L45.4282 13.3372H58.2854L52.2854 2.62291L51.4282 2.19434Z" stroke="black" stroke-width="0.857143" stroke-linecap="round" stroke-linejoin="round"/>
<path id="Vector_7" d="M15.2993 7.88737C15.2993 3.80343 11.9766 0.480957 7.89285 0.480957C3.80903 0.480957 0.486328 3.80355 0.486328 7.88737C0.486328 11.9712 3.80892 15.2938 7.89274 15.2938C11.9766 15.2938 15.2993 11.9713 15.2993 7.88737ZM2.80293 7.88737C2.80293 5.08092 5.08617 2.79756 7.89274 2.79756C10.6993 2.79756 12.9825 5.08092 12.9825 7.88737C12.9825 10.6938 10.6993 12.9772 7.89274 12.9772C5.08617 12.9772 2.80293 10.694 2.80293 7.88737Z" fill="#3BB77E"/>
<path id="Vector_8" d="M23.8907 15.2929H36.3871C37.0267 15.2929 37.5453 14.7742 37.5453 14.1346V1.63828C37.5453 0.998668 37.0267 0.47998 36.3871 0.47998H23.8907C23.251 0.47998 22.7324 0.998668 22.7324 1.63828V14.1346C22.7324 14.7742 23.251 15.2929 23.8907 15.2929ZM25.049 2.79659H35.2287V12.9763H25.049V2.79659Z" fill="#3BB77E"/>
<path id="Vector_9" d="M59.6364 13.0951L52.9528 1.51909C52.746 1.16071 52.3636 0.939941 51.9498 0.939941C51.5359 0.939941 51.1535 1.16071 50.9467 1.51909L44.2631 13.0951C44.0562 13.4536 44.0562 13.8951 44.2631 14.2535C44.47 14.6118 44.8524 14.8326 45.2662 14.8326H58.6333C59.0471 14.8326 59.4295 14.6118 59.6364 14.2535C59.8433 13.8951 59.8433 13.4536 59.6364 13.0951ZM47.2724 12.516L51.9496 4.41485L56.6269 12.516H47.2724Z" fill="#3BB77E"/>
<path id="Vector_10" d="M30.1389 26.6857C30.7787 26.6857 31.2972 26.1669 31.2972 25.5273V22.2223L31.3441 22.2878C31.5703 22.6039 31.9259 22.7722 32.2871 22.7722C32.5204 22.7722 32.756 22.7019 32.9603 22.5557C33.4805 22.1834 33.6004 21.4599 33.2281 20.9397L31.081 17.9394C30.8634 17.6354 30.5127 17.4551 30.1391 17.4551C29.7653 17.4551 29.4146 17.6354 29.1971 17.9394L27.0499 20.9397C26.6777 21.4599 26.7976 22.1834 27.3178 22.5557C27.838 22.9279 28.5614 22.8082 28.9338 22.2879L28.9806 22.2223V25.5273C28.9806 26.1671 29.4992 26.6857 30.1389 26.6857Z" fill="#3BB77E"/>
<path id="Vector_11" d="M20.6019 36.0667C20.6019 35.427 20.0833 34.9084 19.4436 34.9084H9.05744V22.2223L9.10441 22.2878C9.33061 22.6038 9.68615 22.7722 10.0474 22.7722C10.2806 22.7722 10.5162 22.7019 10.7206 22.5557C11.2408 22.1834 11.3606 21.4599 10.9883 20.9397L8.84118 17.9394C8.62364 17.6354 8.27294 17.4551 7.89928 17.4551C7.5256 17.4551 7.17487 17.6354 6.95734 17.9394L4.8102 20.9397C4.43792 21.4599 4.55781 22.1834 5.078 22.5557C5.59808 22.9279 6.32167 22.8082 6.69406 22.2879L6.74086 22.2223V36.0667C6.74086 36.7063 7.25943 37.225 7.89916 37.225H19.4436C20.0832 37.225 20.6019 36.7064 20.6019 36.0667Z" fill="#3BB77E"/>
<path id="Vector_12" d="M53.32 17.9394C53.1024 17.6354 52.7517 17.4551 52.3781 17.4551C52.0044 17.4551 51.6537 17.6354 51.4361 17.9394L49.289 20.9397C48.9167 21.4599 49.0366 22.1834 49.5568 22.5557C50.077 22.9279 50.8006 22.8082 51.1728 22.2879L51.2197 22.2224V34.9085H40.8336C40.1939 34.9085 39.6753 35.4272 39.6753 36.0668C39.6753 36.7064 40.1939 37.2251 40.8336 37.2251H52.3781C53.0177 37.2251 53.5363 36.7064 53.5363 36.0668V22.2224L53.5833 22.2879C53.8095 22.6039 54.1651 22.7723 54.5262 22.7723C54.7595 22.7723 54.9951 22.702 55.1994 22.5558C55.7196 22.1835 55.8396 21.4601 55.4673 20.9399L53.32 17.9394Z" fill="#3BB77E"/>
<path id="Vector_13" d="M44.0163 53.5305C44.6559 53.5305 45.1745 53.0119 45.1745 52.3722C45.1745 51.7325 44.6559 51.2139 44.0163 51.2139C43.3765 51.2139 42.8579 51.7325 42.8579 52.3722C42.8579 53.0119 43.3765 53.5305 44.0163 53.5305Z" fill="#3BB77E"/>
</g>
</g>
</g>
</g>
<defs>
<clipPath id="clip0_1_6575">
<rect width="60" height="60" fill="white" transform="translate(0 0.47998)"/>
</clipPath>
</defs>
</svg>
