<svg width="60" height="61" viewBox="0 0 60 61" fill="none" xmlns="http://www.w3.org/2000/svg">
<g id="icon-5.svg" clip-path="url(#clip0_1_6599)">
<g id="Clip path group">
<mask id="mask0_1_6599" style="mask-type:luminance" maskUnits="userSpaceOnUse" x="0" y="0" width="60" height="60">
<g id="clip0">
<path id="Vector" d="M59.8382 0.47998H0.648926V59.6692H59.8382V0.47998Z" fill="white"/>
</g>
</mask>
<g mask="url(#mask0_1_6599)">
<g id="Group">
<path id="Vector_2" d="M12.4287 14.623V30.4802C15.4287 29.4802 22.8001 29.2802 28.2859 36.4802C29.5716 39.1945 31.6287 45.4802 29.5716 48.9088L35.5716 52.3373V26.623L12.4287 14.623Z" fill="#FDC040"/>
<path id="Vector_3" d="M59.2389 13.2817L36.1867 0.623542C35.8403 0.433429 35.4204 0.433429 35.0741 0.623542L26.3853 5.39446C26.2019 5.44278 26.0308 5.53491 25.889 5.66722L12.0223 13.2817C11.6525 13.4845 11.4227 13.8728 11.4227 14.2951V29.6045C9.08351 30.3361 6.93984 31.6261 5.15746 33.409C0.511628 38.0544 -0.67286 45.1396 2.21001 51.0395C2.48999 51.613 3.18226 51.851 3.75577 51.5706C4.32972 51.2901 4.56725 50.5979 4.28727 50.0244C1.83792 45.0114 2.84448 38.9914 6.79218 35.0437C9.26094 32.5749 12.543 31.2152 16.0342 31.2152C19.5253 31.2152 22.8074 32.5749 25.2761 35.0437C27.7445 37.5121 29.1042 40.7941 29.1042 44.2853C29.1042 47.7764 27.7445 51.0585 25.2757 53.5273C21.3281 57.4749 15.308 58.4815 10.2951 56.0322C9.72157 55.7517 9.02925 55.9897 8.74931 56.5632C8.46889 57.1372 8.70645 57.8294 9.28039 58.1094C11.4294 59.1598 13.7352 59.6701 16.0242 59.6701C20.0176 59.6696 23.9576 58.1153 26.9109 55.162C28.2652 53.8077 29.3354 52.2452 30.0927 50.5468L35.0741 53.282C35.2475 53.3773 35.4389 53.4247 35.6304 53.4247C35.8218 53.4247 36.0138 53.3773 36.1867 53.282L59.2389 40.6243C59.6087 40.4211 59.8385 40.0327 59.8385 39.6109V31.5769C59.8385 30.9385 59.3211 30.4209 58.6825 30.4209C58.044 30.4209 57.5265 30.9385 57.5265 31.5769V38.9269L36.7901 50.3134V27.6351L43.6337 23.8771V29.8343C43.6337 30.2435 43.8496 30.6218 44.2013 30.8296C44.3829 30.9367 44.5861 30.9903 44.7898 30.9903C44.9813 30.9903 45.1732 30.9429 45.347 30.8472L50.2868 28.1282C50.6562 27.925 50.8852 27.5371 50.8852 27.1159V19.8951L57.5265 16.2486V22.3291C57.5265 22.9676 58.044 23.4852 58.6825 23.4852C59.3211 23.4852 59.8385 22.9676 59.8385 22.3291V14.2951C59.8385 13.8733 59.6087 13.4845 59.2389 13.2817ZM35.6304 2.95549L56.2806 14.2951L49.7666 17.872L29.1164 6.53244L35.6304 2.95549ZM35.6304 25.6342L14.9802 14.2951L21.7331 10.5867L42.3838 21.9259L35.6304 25.6342ZM44.7852 20.6072L24.135 9.26808L26.7144 7.8515L47.3651 19.1906L44.7852 20.6072ZM26.9109 33.409C24.0054 30.5035 20.1426 28.9036 16.0342 28.9036C15.257 28.9036 14.4893 28.9609 13.7347 29.0734V16.2486L34.4784 27.6392V50.3174L30.878 48.3404C31.2325 47.0353 31.4159 45.6743 31.4159 44.2853C31.4159 40.1768 29.8159 36.314 26.9109 33.409ZM48.5735 26.4325L45.9458 27.879V22.6077L48.5735 21.1649V26.4325Z" fill="#3BB77E"/>
<path id="Vector_4" d="M58.6819 25.7905C58.378 25.7905 58.0795 25.9143 57.8646 26.1293C57.6496 26.3442 57.5259 26.6423 57.5259 26.9466C57.5259 27.2505 57.6496 27.5485 57.8646 27.7635C58.0795 27.9789 58.378 28.1022 58.6819 28.1022C58.9858 28.1022 59.2843 27.9789 59.4993 27.7635C59.7142 27.5485 59.838 27.2505 59.838 26.9466C59.838 26.6423 59.7142 26.3442 59.4993 26.1293C59.2843 25.9143 58.9858 25.7905 58.6819 25.7905Z" fill="#3BB77E"/>
<path id="Vector_5" d="M12.1465 45.4404C12.4423 45.4404 12.7386 45.3275 12.9639 45.1021C13.4154 44.6505 13.4154 43.9185 12.9639 43.467L12.1632 42.6659H18.9956C20.6529 42.6659 22.0013 44.0142 22.0013 45.6715C22.0013 47.3288 20.6529 48.6773 18.9956 48.6773H14.9472C14.3087 48.6773 13.7911 49.1947 13.7911 49.8333C13.7911 50.4714 14.3087 50.9889 14.9472 50.9889H18.9956C21.9277 50.9889 24.3134 48.6036 24.3134 45.6715C24.3134 42.7394 21.9277 40.3542 18.9956 40.3542H12.1632L12.9639 39.5531C13.4154 39.1015 13.4154 38.3695 12.9639 37.918C12.5127 37.4668 11.7807 37.4668 11.3292 37.918L8.55465 40.6925C8.10353 41.144 8.10353 41.876 8.55465 42.3276L11.3292 45.1016C11.5549 45.3275 11.8507 45.4404 12.1465 45.4404Z" fill="#3BB77E"/>
<path id="Vector_6" d="M5.97512 55.5016C5.64637 55.5016 5.31988 55.3616 5.09183 55.0902L5.08958 55.0875C4.67864 54.5989 4.74186 53.87 5.23047 53.4591C5.71907 53.0477 6.44837 53.1109 6.85931 53.5995C7.26979 54.0886 7.20793 54.8188 6.71931 55.2297C6.50211 55.4122 6.23794 55.5016 5.97512 55.5016Z" fill="#3BB77E"/>
</g>
</g>
</g>
</g>
<defs>
<clipPath id="clip0_1_6599">
<rect width="60" height="60" fill="white" transform="translate(0 0.47998)"/>
</clipPath>
</defs>
</svg>
